<?xml version="1.0" encoding="UTF-8" standalone="no"?>
<!DOCTYPE svg PUBLIC "-//W3C//DTD SVG 1.1//EN" "http://www.w3.org/Graphics/SVG/1.1/DTD/svg11.dtd">
<svg xmlns="http://www.w3.org/2000/svg" version="1.1" viewBox="0 0 544 244" width="544.0pt" height="244.0pt">
<path d="M 0.00 0.00 L 544.00 0.00 L 544.00 244.00 L 0.00 244.00 L 0.00 0.00 Z" fill="#ffffff" />
<path d="M 117.99 53.72 C 125.65 53.17 133.24 53.58 140.50 56.29 C 152.67 60.63 163.18 69.20 169.46 80.55 C 177.65 94.24 178.13 111.29 173.02 126.14 C 168.81 136.85 161.30 146.39 151.47 152.47 C 144.04 157.42 134.83 159.83 126.01 160.51 C 113.62 160.94 100.67 157.15 91.03 149.21 C 100.71 140.88 108.01 129.78 110.03 117.02 C 111.95 107.41 110.90 97.37 107.70 88.16 C 104.29 79.14 98.33 70.92 90.82 64.87 C 98.79 58.85 108.00 54.75 117.99 53.72 Z" fill="#f79f1b" />
<path d="M 60.00 53.58 C 71.30 53.73 81.77 58.04 90.70 64.79 C 81.68 72.54 75.14 82.47 72.08 93.99 C 68.28 110.38 71.97 128.18 82.79 141.19 C 85.26 144.08 88.03 146.74 90.66 149.49 C 84.14 154.04 76.94 158.06 69.03 159.47 C 57.20 161.85 44.16 160.38 33.55 154.44 C 23.34 149.00 14.93 140.18 10.21 129.60 C 5.04 118.96 4.10 106.64 6.49 95.15 C 9.75 81.57 17.92 69.35 29.81 61.88 C 38.92 55.94 49.13 53.17 60.00 53.58 Z" fill="#eb001b" />
<path d="M 423.01 56.78 C 428.43 57.26 433.81 58.71 439.01 60.28 C 438.46 68.06 436.72 75.43 435.46 83.08 C 426.94 79.86 418.36 77.72 409.18 78.22 C 404.31 78.78 398.10 79.75 395.38 84.39 C 393.47 87.67 394.96 91.11 397.68 93.31 C 403.53 97.87 411.34 100.50 417.79 104.28 C 423.86 107.90 429.29 111.96 432.54 118.43 C 435.16 123.39 435.17 128.57 434.74 134.03 C 433.95 142.23 429.33 149.83 422.98 154.96 C 414.76 161.28 405.07 164.29 394.90 165.57 C 387.87 165.78 380.67 165.86 373.65 165.49 C 366.63 164.57 359.52 163.21 352.89 160.67 C 353.74 152.66 355.24 144.72 356.41 136.75 C 367.31 141.74 378.90 144.99 391.00 143.87 C 394.94 143.15 400.20 142.12 402.88 138.88 C 404.80 136.74 405.88 134.03 404.83 131.20 C 403.39 127.43 399.21 124.96 395.84 123.12 C 388.04 119.08 380.52 116.18 373.87 110.16 C 370.35 107.07 367.43 103.57 365.99 99.05 C 363.26 92.12 364.84 84.35 367.84 77.79 C 373.22 67.69 382.83 61.89 393.51 58.68 C 403.43 55.72 412.77 56.91 423.01 56.78 Z" fill="#00579f" />
<path d="M 179.91 58.32 C 194.25 57.97 208.65 58.33 223.00 58.15 C 227.12 58.15 232.72 58.04 236.00 60.98 C 240.07 65.69 240.22 72.35 241.56 78.17 C 243.39 86.15 244.60 94.24 246.57 102.18 C 247.45 105.87 248.19 109.57 248.82 113.32 C 245.89 107.99 243.45 102.89 239.86 98.08 C 231.97 87.22 221.67 78.60 210.04 71.97 C 201.98 67.38 193.54 63.57 184.48 61.44 C 182.82 60.70 179.68 60.78 179.91 58.32 Z" fill="#f79f1b" />
<path d="M 281.16 58.26 C 291.19 58.09 301.24 58.21 311.27 58.21 C 307.25 68.41 302.84 78.48 298.52 88.55 C 287.78 113.76 276.80 139.21 266.10 164.45 C 256.06 164.39 245.95 164.73 235.93 164.31 C 234.21 160.75 233.43 156.62 232.34 152.82 C 227.38 135.14 222.55 117.47 217.52 99.81 C 215.27 90.44 212.04 81.40 210.04 71.97 C 221.67 78.60 231.97 87.22 239.86 98.08 C 243.45 102.89 245.89 107.99 248.82 113.32 C 250.14 118.95 251.00 124.65 252.62 130.22 C 255.83 124.10 257.66 117.59 260.34 111.26 C 267.25 93.59 274.06 75.85 281.16 58.26 Z" fill="#00579f" />
<path d="M 323.54 58.34 C 333.04 57.93 342.63 58.30 352.15 58.19 C 350.22 71.16 347.73 84.05 345.75 97.02 C 344.84 103.33 343.25 109.50 342.40 115.82 C 340.05 131.56 337.03 147.18 334.44 162.88 C 334.21 165.42 331.79 164.29 330.01 164.60 C 321.82 164.42 313.60 164.85 305.43 164.32 C 306.99 155.74 308.53 147.16 309.72 138.52 C 312.80 121.68 315.67 104.93 318.31 88.01 C 320.53 78.20 321.41 68.14 323.54 58.34 Z" fill="#00579f" />
<path d="M 490.00 58.19 C 497.92 58.15 505.85 58.19 513.78 58.20 C 516.66 70.44 518.81 82.81 521.96 94.98 C 524.96 110.74 529.03 126.24 532.04 141.99 C 533.94 149.47 535.53 156.96 536.93 164.55 C 529.95 164.57 522.98 164.51 516.00 164.60 C 514.31 164.57 512.49 164.67 510.84 164.24 C 508.94 159.30 508.33 153.78 506.86 148.67 C 494.36 148.54 481.81 148.46 469.31 148.71 C 467.68 153.53 465.96 158.38 463.98 163.06 C 463.19 165.12 460.72 164.39 459.01 164.60 C 450.44 164.41 441.85 164.80 433.30 164.34 C 446.18 135.25 458.96 105.94 471.92 76.85 C 474.20 71.72 476.11 65.17 480.29 61.27 C 482.92 58.64 486.46 58.27 490.00 58.19 Z" fill="#00579f" />
<path d="M 90.70 64.79 L 90.82 64.87 C 98.33 70.92 104.29 79.14 107.70 88.16 C 110.90 97.37 111.95 107.41 110.03 117.02 C 108.01 129.78 100.71 140.88 91.03 149.21 L 90.66 149.49 C 88.03 146.74 85.26 144.08 82.79 141.19 C 71.97 128.18 68.28 110.38 72.08 93.99 C 75.14 82.47 81.68 72.54 90.70 64.79 Z" fill="#ff5f00" />
<path d="M 493.31 87.18 C 496.93 100.34 499.06 113.80 502.34 127.04 C 494.17 127.09 486.00 127.09 477.83 127.04 C 482.95 113.74 488.08 100.43 493.31 87.18 Z" fill="#ffffff" />
<path d="M 76.50 168.28 C 76.70 169.90 76.87 171.53 77.05 173.16 C 78.66 173.19 80.27 173.22 81.88 173.26 C 81.81 174.27 81.74 175.28 81.66 176.29 C 80.02 176.31 78.37 176.34 76.73 176.37 C 76.81 179.23 77.00 182.07 77.44 184.90 C 79.05 184.78 80.66 184.65 82.26 184.51 C 82.29 185.51 82.32 186.50 82.34 187.50 C 80.21 187.56 77.86 187.86 75.77 187.36 C 72.74 185.10 73.98 180.25 73.67 176.94 C 71.81 175.98 71.17 175.43 70.08 173.72 C 71.24 173.50 72.39 173.29 73.54 173.08 C 73.64 171.84 73.75 170.61 73.87 169.38 C 74.74 168.99 75.62 168.64 76.50 168.28 Z" fill="#292526" />
<path d="M 165.38 167.68 L 168.09 167.55 C 168.14 174.23 168.47 180.99 167.78 187.64 C 164.49 186.69 161.41 187.89 158.14 187.51 C 152.36 185.32 152.07 176.32 157.57 173.59 C 160.43 171.92 162.51 173.31 165.19 174.38 C 165.19 172.14 165.15 169.92 165.38 167.68 Z" fill="#292526" />
<path d="M 14.13 173.40 C 15.38 173.36 16.62 173.42 17.87 173.42 C 21.31 172.79 22.81 172.89 25.83 174.69 C 29.30 172.49 32.78 171.67 35.46 175.49 C 36.77 179.10 36.23 183.54 36.08 187.33 L 33.47 187.63 C 33.09 184.50 33.68 181.04 32.94 178.00 C 32.19 175.35 29.41 176.49 27.36 176.28 C 26.51 180.05 26.77 183.83 26.38 187.64 L 23.60 187.42 C 23.29 184.12 23.70 180.73 23.22 177.46 C 22.69 175.61 18.17 175.68 17.51 177.44 C 16.63 180.52 17.01 184.07 16.71 187.26 L 14.69 187.85 C 13.02 183.54 13.71 177.94 14.13 173.40 Z" fill="#292526" />
<path d="M 53.32 173.27 C 53.24 178.16 53.94 183.52 52.60 188.18 C 51.82 187.67 51.04 187.17 50.26 186.66 C 47.78 187.50 44.58 188.45 42.20 186.86 C 38.02 183.86 37.82 177.12 42.07 174.09 C 45.13 171.72 49.49 174.20 53.32 173.27 Z" fill="#292526" />
<path d="M 66.58 173.44 C 68.50 173.98 67.87 175.04 68.20 176.64 C 65.30 176.43 62.62 175.12 59.98 176.83 C 61.13 179.44 65.69 178.26 67.65 180.37 C 69.95 182.28 68.82 186.77 65.83 187.43 C 63.44 187.84 60.82 187.87 58.46 187.29 C 57.15 187.02 57.20 185.12 56.72 184.10 C 59.70 184.66 62.45 185.41 65.50 184.82 C 65.53 184.04 65.57 183.27 65.60 182.50 C 63.11 181.80 60.15 181.45 57.95 180.07 C 56.94 178.90 57.00 176.81 57.47 175.42 C 59.48 172.48 63.49 172.25 66.58 173.44 Z" fill="#292526" />
<path d="M 89.17 173.22 C 92.38 171.91 95.23 173.64 97.26 176.05 C 97.53 177.83 97.64 179.62 97.74 181.42 C 94.17 181.42 90.60 181.42 87.03 181.55 C 87.90 182.72 88.74 184.06 89.86 184.99 C 91.44 185.57 93.52 184.71 95.15 184.51 L 97.16 184.26 C 96.62 185.79 96.82 187.15 94.87 187.45 C 92.42 187.77 88.68 188.25 86.87 186.15 C 82.77 182.54 83.88 175.09 89.17 173.22 Z" fill="#292526" />
<path d="M 106.22 173.28 C 105.73 173.50 105.24 173.73 104.75 173.96 C 103.59 173.87 102.43 173.79 101.27 173.72 C 101.33 178.14 101.32 182.56 101.31 186.98 C 102.33 186.97 103.35 186.95 104.37 186.93 C 104.27 183.49 104.29 180.07 104.47 176.64 C 106.12 176.31 107.76 175.96 109.38 175.48 C 109.38 174.76 109.35 174.06 109.29 173.35 C 109.51 174.21 109.66 175.07 109.83 175.93 C 108.13 176.37 105.47 175.99 104.79 178.01 C 104.11 181.06 104.37 184.40 104.52 187.50 C 103.39 187.51 102.27 187.52 101.14 187.51 C 101.35 182.82 101.38 178.13 101.06 173.44 C 102.78 173.37 104.50 173.35 106.22 173.28 Z" fill="#f79f1b" />
<path d="M 106.22 173.28 C 107.26 173.16 108.29 173.19 109.29 173.35 C 109.35 174.06 109.38 174.76 109.38 175.48 C 107.76 175.96 106.12 176.31 104.47 176.64 C 104.29 180.07 104.27 183.49 104.37 186.93 C 103.35 186.95 102.33 186.97 101.31 186.98 C 101.32 182.56 101.33 178.14 101.27 173.72 C 102.43 173.79 103.59 173.87 104.75 173.96 C 105.24 173.73 105.73 173.50 106.22 173.28 Z" fill="#292526" />
<path d="M 123.79 174.88 C 122.10 178.10 118.36 175.10 115.85 176.81 C 113.34 178.93 113.89 183.59 117.11 184.75 C 119.40 185.29 122.97 182.85 123.63 186.15 C 121.61 188.14 118.52 187.83 115.94 187.49 C 111.13 186.05 109.97 180.25 112.14 176.21 C 114.81 172.39 120.33 171.53 123.79 174.88 Z" fill="#292526" />
<path d="M 133.86 173.08 C 134.46 173.40 135.06 173.73 135.66 174.06 C 136.60 173.90 137.54 173.78 138.49 173.70 C 139.73 174.28 139.31 176.79 139.52 177.96 C 139.61 180.99 139.63 183.98 139.04 186.97 C 137.97 186.93 136.91 186.88 135.84 186.83 C 132.65 187.67 129.93 188.26 127.39 185.63 C 124.18 182.48 125.24 178.78 126.76 175.10 C 128.97 173.42 131.02 172.48 133.86 173.08 Z" fill="#292526" />
<path d="M 133.86 173.08 C 135.75 173.34 137.84 173.31 139.64 173.96 C 139.60 178.43 139.68 182.92 139.49 187.39 C 136.54 187.49 133.57 188.10 130.63 188.03 C 128.77 187.44 126.89 186.13 125.91 184.42 C 124.87 181.34 124.99 177.89 126.76 175.10 C 125.24 178.78 124.18 182.48 127.39 185.63 C 129.93 188.26 132.65 187.67 135.84 186.83 C 136.91 186.88 137.97 186.93 139.04 186.97 C 139.63 183.98 139.61 180.99 139.52 177.96 C 139.31 176.79 139.73 174.28 138.49 173.70 C 137.54 173.78 136.60 173.90 135.66 174.06 C 135.06 173.73 134.46 173.40 133.86 173.08 Z" fill="#f79f1b" />
<path d="M 152.88 172.58 C 152.53 173.60 152.15 174.61 151.73 175.60 C 150.28 176.05 148.78 176.34 147.30 176.67 C 146.51 180.31 146.74 183.93 146.49 187.61 L 143.82 187.35 C 143.63 182.49 143.19 177.26 144.44 172.51 C 145.25 173.01 146.07 173.51 146.88 174.01 C 148.85 173.36 150.83 172.92 152.88 172.58 Z" fill="#292526" />
<path d="M 91.17 175.75 C 93.19 175.44 94.17 177.57 95.38 178.77 C 92.72 179.14 90.15 179.27 87.46 179.16 C 88.55 177.74 89.08 175.80 91.17 175.75 Z" fill="#ffffff" />
<path d="M 44.37 176.42 C 47.21 175.39 50.59 176.67 50.58 180.01 C 51.00 182.75 48.79 185.21 46.00 184.91 C 41.72 185.05 40.83 177.80 44.37 176.42 Z" fill="#ffffff" />
<path d="M 97.26 176.05 C 97.83 177.80 98.26 179.64 98.71 181.42 C 95.30 181.47 91.88 181.37 88.48 181.61 C 87.13 185.71 92.85 184.76 95.15 184.51 C 93.52 184.71 91.44 185.57 89.86 184.99 C 88.74 184.06 87.90 182.72 87.03 181.55 C 90.60 181.42 94.17 181.42 97.74 181.42 C 97.64 179.62 97.53 177.83 97.26 176.05 Z" fill="#f79f1b" />
<path d="M 130.43 176.49 C 131.74 175.97 133.28 175.97 134.60 176.45 C 137.00 177.53 137.28 181.08 136.08 183.06 C 134.46 185.62 130.47 185.55 128.93 182.95 C 127.95 180.99 128.14 177.52 130.43 176.49 Z" fill="#ffffff" />
<path d="M 164.61 176.78 C 164.65 179.23 164.62 181.65 164.47 184.09 C 162.84 184.49 160.79 185.21 159.14 184.66 C 156.38 183.23 155.51 179.13 158.00 177.00 C 159.60 175.45 162.67 176.43 164.61 176.78 Z" fill="#ffffff" />
<path d="M 164.61 176.78 C 165.75 179.55 165.50 181.34 164.47 184.09 C 164.62 181.65 164.65 179.23 164.61 176.78 Z" fill="#00579f" />
</svg>