<svg viewBox="0 0 199.95 232.6" xmlns="http://www.w3.org/2000/svg"><g transform="translate(-.07)"><path d="m195.93 230.49v.4h.37a.39.39 0 0 0 .2-.05.18.18 0 0 0 .07-.15.17.17 0 0 0 -.07-.15.36.36 0 0 0 -.2-.05zm.38-.28a.69.69 0 0 1 .45.13.43.43 0 0 1 .16.35.41.41 0 0 1 -.13.31.61.61 0 0 1 -.36.15l.5.57h-.39l-.46-.57h-.15v.57h-.32v-1.52zm-.1 2a1.19 1.19 0 0 0 .49-.1 1.29 1.29 0 0 0 .4-.27 1.26 1.26 0 0 0 .27-.4 1.3 1.3 0 0 0 0-1 1.31 1.31 0 0 0 -.27-.4 1.29 1.29 0 0 0 -.4-.27 1.26 1.26 0 0 0 -.49-.09 1.31 1.31 0 0 0 -.5.09 1.28 1.28 0 0 0 -.41.27 1.29 1.29 0 0 0 -.27 1.4 1.19 1.19 0 0 0 .27.4 1.28 1.28 0 0 0 .41.27 1.25 1.25 0 0 0 .5.1m0-2.9a1.67 1.67 0 0 1 1.17.48 1.6 1.6 0 0 1 .35.52 1.61 1.61 0 0 1 0 1.27 1.69 1.69 0 0 1 -.35.52 1.79 1.79 0 0 1 -.53.35 1.63 1.63 0 0 1 -.65.13 1.66 1.66 0 0 1 -.66-.13 1.71 1.71 0 0 1 -.53-.35 1.69 1.69 0 0 1 -.35-.52 1.61 1.61 0 0 1 0-1.27 1.6 1.6 0 0 1 .35-.52 1.58 1.58 0 0 1 .53-.35 1.66 1.66 0 0 1 .66-.13m-153.1-5.83a5 5 0 1 1 5 5.25 4.92 4.92 0 0 1 -5-5.25m13.29 0v-8.18h-3.57v2a6.22 6.22 0 0 0 -5.18-2.4c-4.6 0-8.21 3.61-8.21 8.62s3.61 8.62 8.21 8.62a6.22 6.22 0 0 0 5.18-2.4v2h3.57zm120.58 0a5 5 0 1 1 5 5.25 4.92 4.92 0 0 1 -5-5.25m13.29 0v-14.8h-3.57v8.58a6.22 6.22 0 0 0 -5.18-2.4c-4.6 0-8.21 3.61-8.21 8.62s3.61 8.62 8.21 8.62a6.22 6.22 0 0 0 5.18-2.4v2h3.57zm-89.58-5.42c2.3 0 3.78 1.44 4.15 4h-8.51c.38-2.37 1.82-4 4.36-4m.07-3.19c-4.81 0-8.17 3.5-8.17 8.62s3.5 8.62 8.41 8.62a10 10 0 0 0 6.73-2.3l-1.72-2.63a7.85 7.85 0 0 1 -4.77 1.72 4.56 4.56 0 0 1 -4.91-4h12.19c0-.44.07-.89.07-1.37 0-5.12-3.19-8.62-7.79-8.62m43.08 8.62a5 5 0 1 1 5 5.25 4.92 4.92 0 0 1 -5-5.25m13.29 0v-8.23h-3.57v2a6.23 6.23 0 0 0 -5.18-2.4c-4.6 0-8.21 3.61-8.21 8.62s3.61 8.62 8.21 8.62a6.23 6.23 0 0 0 5.18-2.4v2h3.57zm-33.44 0c0 5 3.47 8.62 8.76 8.62a8.59 8.59 0 0 0 5.9-2l-1.71-2.88a7.21 7.21 0 0 1 -4.3 1.48 5.26 5.26 0 0 1 0-10.51 7.21 7.21 0 0 1 4.3 1.48l1.71-2.88a8.59 8.59 0 0 0 -5.9-2c-5.29 0-8.76 3.64-8.76 8.62m46-8.62a4.84 4.84 0 0 0 -4.33 2.4v-2h-3.54v16.41h3.57v-9.2c0-2.72 1.17-4.22 3.5-4.22a5.78 5.78 0 0 1 2.23.41l1.1-3.36a7.6 7.6 0 0 0 -2.54-.45m-95.71 1.78a12.27 12.27 0 0 0 -6.69-1.72c-4.16 0-6.83 2-6.83 5.25 0 2.68 2 4.33 5.66 4.84l1.69.24c2 .28 2.88.79 2.88 1.72 0 1.27-1.3 2-3.74 2a8.74 8.74 0 0 1 -5.46-1.72l-1.65 2.78a11.84 11.84 0 0 0 7.1 2.13c4.74 0 7.49-2.23 7.49-5.36 0-2.88-2.16-4.39-5.73-4.91l-1.72-.24c-1.54-.2-2.78-.51-2.78-1.61s1.17-1.92 3.12-1.92a10.59 10.59 0 0 1 5.12 1.41zm46-1.72a4.83 4.83 0 0 0 -4.32 2.4v-2h-3.54v16.41h3.57v-9.2c0-2.72 1.17-4.22 3.5-4.22a5.78 5.78 0 0 1 2.23.41l1.1-3.36a7.6 7.6 0 0 0 -2.54-.45m-30.45.41h-5.76v-5h-3.6v5h-3.33v3.26h3.33v7.49c0 3.81 1.48 6.08 5.7 6.08a8.37 8.37 0 0 0 4.46-1.27l-1-3.06a6.61 6.61 0 0 1 -3.16.93c-1.78 0-2.37-1.1-2.37-2.75v-7.42h5.84zm-53.27 16.42v-10.3a6.11 6.11 0 0 0 -6.46-6.52 6.35 6.35 0 0 0 -5.77 2.92 6 6 0 0 0 -5.42-2.92 5.43 5.43 0 0 0 -4.81 2.44v-2h-3.57v16.41h3.6v-9.1c0-2.85 1.58-4.36 4-4.36s3.57 1.54 3.57 4.33v9.13h3.58v-9.1c0-2.85 1.65-4.36 4-4.36s3.6 1.54 3.6 4.33v9.13z" fill="#231f20"/><path d="m198.13 177.14v-2.4h-.62l-.72 1.65-.72-1.65h-.63v2.4h.44v-1.81l.68 1.56h.44l.68-1.56v1.81zm-4 0v-2h.8v-.4h-2v.4h.8v2z" fill="#f79410"/><path d="m127.08 187.45h-54.08v-97.19h54.08z" fill="#ff5f00"/><path d="m76.47 138.85a61.7 61.7 0 0 1 23.61-48.59 61.81 61.81 0 1 0 0 97.19 61.7 61.7 0 0 1 -23.61-48.59" fill="#eb001b"/><path d="m200 138.85a61.81 61.81 0 0 1 -100 48.59 61.81 61.81 0 0 0 0-97.19 61.81 61.81 0 0 1 100 48.59" fill="#f79e1b"/></g><path d="m86.61 63.75h-16.19l10.13-62.61h16.18z" fill="#00579f"/><path d="m145.37 2.67a39.9 39.9 0 0 0 -14.52-2.67c-16 0-27.25 8.53-27.32 20.72-.13 9 8.06 14 14.19 17s8.39 5.06 8.39 7.8c-.06 4.19-5.06 6.13-9.72 6.13a32.22 32.22 0 0 1 -15.19-3.35l-2.13-1-2.27 14.05c3.8 1.73 10.79 3.27 18.06 3.33 17 0 28-8.39 28.18-21.38.06-7.13-4.26-12.59-13.59-17.05-5.66-2.87-9.13-4.8-9.13-7.73.07-2.66 2.93-5.39 9.33-5.39a27.51 27.51 0 0 1 12.06 2.4l1.46.66 2.2-13.52z" fill="#00579f" transform="translate(-.07)"/><path d="m166.89 41.57c1.33-3.57 6.46-17.57 6.46-17.57s1.33-3.66 2.13-6l1.13 5.4s3.07 15 3.73 18.12zm20-40.43h-12.54c-3.86 0-6.8 1.13-8.46 5.2l-24 57.42h17l3.4-9.39h20.71c.46 2.2 1.93 9.39 1.93 9.39h15l-13.06-62.62z" fill="#00579f" transform="translate(-.07)"/><path d="m57 1.14-15.89 42.69-1.73-8.66c-2.94-9.99-12.13-20.84-22.38-26.24l14.51 54.76h17.12l25.45-62.55z" fill="#00579f" transform="translate(-.07)"/><path d="m26.38 1.14h-26.05l-.26 1.26c20.32 5.2 33.77 17.72 39.3 32.78l-5.66-28.78c-.93-4-3.8-5.13-7.33-5.26z" fill="#faa61a" transform="translate(-.07)"/></svg>