<svg xmlns="http://www.w3.org/2000/svg" xmlns:xlink="http://www.w3.org/1999/xlink" width="100%" height="100%" viewBox="0 0 288 288" preserveAspectRatio="xMidYMid meet" ><g style="fill:rgb(227,235,246);fill-rule:evenodd;stroke:rgb(227,235,246);stroke-width:0.1;" id="l1"><path d="M0,0h288v47h-14l-106-1v1c-43,0-43,1-55,2h-1c0,32,3,32,3,30h1v-28l45-1h115l8,1v67l-1,37l-1,22l-1,13h-1v15l-1,2h-8l-2-1l-6-6c0-2-1-2-3-4c0-2-1-2-8-9v-1h-2l-1-1v-1h-2l-4-2v-1h-4l-4-1v-1l-12,1c-5,0-5,1-13,5c-2,0-2,1-4,3c-2,0-2,1-5,4h-1v2l-2,2l-14,1c-16,0-16,1-30,2c-18,0-18,1-34,2h-8v-1l1-48l1-29h1l-1-19v-1l-1,1h-1v2h-1v16h-1v79h-9l-3-1l-6-6v-1h-2l-3-3v-1h-2l-4-2v-1h-3l-2-1c0-1-5-1-19-2v1l-3,1c-3,0-3,1-5,2c-2,0-2,1-3,2c-2,0-2,1-6,5h-1v2l-1,1h-1v2l-3,1c-5,0-5,1-8,2l-5,1l-6,1h-1l-1-3l-1-6c0-6-1-6-2-11l-1-7l-1-10v-11l23-1l33-1h12v-1c3,0,3-1,5-3h1v-4h1c0-25-1-25-2-33v-1h-65v-1l3-6l1-1h1v-2l2-2h1v-2l10-10c2,0,2-1,3-2c2,0,2-1,3-2l8-4c3,0,3-1,5-2l4-1l5-1l8-1h15l8,1c3,1,3,0,4-2h-1c0-1-3-1-11-2v-1l-15,1c-8,0-8,1-16,3c-3,0-3,1-5,2c-3,0-3,1-7,3l-2,1c-2,0-2,1-3,2c-2,0-2,1-3,2c-2,0-2,1-5,4c-2,0-2,1-3,2h-1v2l-4,4h-1v2l-1,1h-1v2l-1,2l-1,1h-1v2l-2,4l-1,2h-1v3l-3,9h-1v4c-1,0-1,5-2,12h-1v26h1c0,8,1,8,2,15c0,7,1,7,3,17c0,6,1,6,2,8v1h3v-1l5-1c5,0,5-1,13-3h1v3c-1,15,0,15,2,19l1,2c0,2,1,2,6,7v1h2l4,2l2,1c0,1,4,1,12,2v-1c4,0,4-1,5-2l3-1c2,0,2-1,3-2h1v-2l1-1c1,0,1-2,2-6h1v-8h-1c0-3-1-3-3-7c0-2-1-2-3-4v-1h-2l-1-1v-1h-2l-2-1l-1-1v-1h-3c0-1-4-1-9-2v-1l-7,1h-3v-1l6-6c2,0,2-1,3-2l2-1l3-1h17l4,1l6,3l2,2v1h2l2,2l5,5v1h2l4,2v1c20,0,20-1,34-2l51-3h10v3l-1,2h-1v4h-1v13h1c0,3,1,3,2,5l1,3c0,2,1,2,5,6v1h2l4,2c0,1,3,1,14,2v-1c3,0,3-1,5-2c2,0,2-1,3-2c2,0,2-1,3-3l1-1h1v-2l1-2h1v-3h1v-12h-1c0-3-1-3-3-7c0-2-1-2-3-4v-1h-2l-1-1v-1h-3l-2-1v-1h-3c0-1-6-1-15-2v-1l6-6c2,0,2-1,3-2l4-2l4-1h16l4,1l6,3l2,2v1h2l5,5c0,2,1,2,3,4c0,2,1,2,6,7l1,1v1h2l1,1c0,1,3,1,10,2v-1l3-1c1,0,1-3,2-17c1,0,1-18,2-42h1v-30h1v168h-288z"/><path d="M14,116h65v31l-1,2l-1,1l-14,1l-39,1h-16v-11l1-8l1-5l1-3h1v-4l1-3z"/><path d="M200,199h14l8,2l4,2l5,5l2,4l1,6v3l-1,5l-2,4l-5,5l-4,2h-13l-3-1l-1-1v-1h-2l-4-4l-2-4l-1-3v-13l1-4l2-6zm-155,2h7l6,1l3,1l6,3l6,6l2,4v10l-1,3l-5,5l-2,1l-4,1h-8l-4-1l-6-3l-5-5l-3-6l-1-4v-7l1-5l1-2l1-1z"/></g><g style="fill:rgb(4,76,172);fill-rule:evenodd;stroke:rgb(4,76,172);stroke-width:0.1;" id="l2"><path d="M198,46h52l37,1v91l-1,20h-1v22l-1,17l-1,11l-2,2l-2,1h-7l-1-1v-1h-3l-2-1l-5-5c0-2-1-2-3-4c0-2-1-2-3-4c0-2-1-2-4-5v-1h-2l-8-4l-2-1c0-1-4-1-16-2v1l-2,1c-4,0-4,1-6,2c-3,0-3,1-5,3c-2,0-2,1-6,5c-1,0-1,2,12,2l6,1l4,2l1,1v1h2l5,5l1,2c0,4,1,4,2,7v10l-1,3l-2,4l-4,4c-2,0-2,1-4,3l-2,1l-5,1h-7l-3-1v-1h-4l-2-1l-6-6c0-2-1-2-2-3l-2-4v-18l1-4l2-4l-4,1l-18,1c-19,0-19,1-29,2l-17,1h-30l-2-2v-1h-2l-4-4l-2-2v-1h-2l-1-1v-1h-2l-8-4v-1h-3v-1c-13,0-13,1-19,3h-3v1c-2,0-2,1-7,6l-1,1c-1,0-1,1,15,1l4,1l1,1v1h3l2,1l2,2v1h2l5,5l2,4l1,5v6l-1,4l-1,2l-4,4c-2,0-2,1-3,2l-2,1l-3,1h-12l-4-1l-4-2l-9-9l-2-4l-1-4v-9l1-5l1-2l-8,2c-4,0-4,1-7,2h-9l-2-8c0-7-1-7-2-13c0-9-1-9-2-13v-37l1-5l1-4h1v-5l2-6l1-1h1v-4l3-6l1-1h1v-2l2-2h1v-2l3-3h1v-2l6-6c2,0,2-1,5-4c2,0,2-1,3-2l8-4l3-1c4,0,4-1,7-2l4-1l6-1h23l6,1l1,1v2h-6l-25-1v1c-5,0-5,1-8,2c-4,0-4,1-6,2c-3,0-3,1-7,3l-2,1c-3,0-3,1-4,2c-2,0-2,1-5,4c-2,0-2,1-6,5h-1v2l-3,3h-1v2l-1,2l-1,1h-1v2l-2,4c-1,0-1,2,65,2v36l-4,4l-4,1l-31,1l-34,1c-2,0-1,6-1,17h1l1,6c0,7,1,7,2,13c0,6,1,6,2,9c0,3,5,3,5,2l4-1c5,0,5-1,8-2c5,0,5-1,7-3h1v-2l8-8l2-1c4,0,4-1,10-3h12l5,1l2,1v1h3l2,1l2,2v1h2l2,2l1,1v1h2l5,5v1h2c0,1,4,1,14,2v-1l18-1c17,0,17-1,30-2l18-1h17v-1c3,0,3-1,4-3l8-8l8-4l4-1l5-1h8l6,1l4,1l4,2l2,2v1h2l3,3v1h2l2,2c0,2,1,2,3,4c0,2,1,2,3,4c0,2,1,2,2,3v1h2l1,1c0,1,2,1,5,2v1l4-1c2,0,2-6,3-22h1v-21l1-16c1,0,1-46,2-97h-1l-17-1v-1c-93,0-93,1-137,2c-14,0-14,5-15,30h-3v-4l1-28l1-1l27-1zm-118,85h-1v-15h-65v2l-1,3l-1,2h-1v5l-1,5l-1,3h-1v9l-1,8l8-1l41-1h18v-1l3-1h2v-3h1zm-13,104v-1h2v-1l1-1l2-1h1v-2l1-1h1v-4h1v-5h-1v-5h-1l-1-1v-2h-1l-3-3v-1h-2l-4-2l-2-1v-1h-3l-2-1v-1l-17,1h-1v3l-1,3h-1v11h1l1,2v4h1l2,2v2h1l2,1l1,1v1h2l2,2v1h4v1l12-1zm155,2v-1l4-2h2v-1l2-2h1v-3l1-2l1-1h1v-10h-1v-3h-1l-1-2v-3h-1l-2-2v-1h-2l-2-2v-1h-3v-1h-5l-16-1v1l-1,3l-1,1h-1v3l-1,6h-1l1,6v6h1l1,1l2,4v2h1l2,1l2,2v1h4l1,1v1l10-1z"/><path d="M113,103h1l1,1v4l-1,23h-1v37l-1,32h-2v-61l1-26l1-9z"/></g><g style="fill:rgb(90,137,202);fill-rule:evenodd;stroke:rgb(90,137,202);stroke-width:0.1;" id="l3"><path d="M178,46h10v1h-10zm80,0h9v1h-9zm-126,1h5v1h-5zm-19,1h1v1l-1,3h-1v-3zm174,0h1v1h-1zm-98,1h26v1h-26zm41,0h28v1h-28zm-84,1h7v1h-7zm137,0h1l1,1v33h-1l-1-33z"/><path d="M73,71h7v1h-7zm-9,1h2v1h-2zm25,0h2v1h-2zm26,0h1v4h-1zm-20,1h1l1,1v1h-1l-1-1zm-30,2h2v1h-2zm23,0h2v1h-2zm5,1h2v1h-2zm194,0h1v23h-1zm-255,9h1v1l-1,1h-1v-1zm-1,5h1v1l-5,5h-1v-1zm-10,6h1v1l-1,1h-1v-1zm90,13h1v2h-1zm-47,3h9v1h-9zm-36,3h19v1h-19z"/><path d="M114,115h1v4h-1zm169,13h1v9h-1zm-173,2h1v4h-1zm-105,4h1v2h-1zm77,0h1v12h-1zm31,1h1v5h-1zm173,6h1v4h-1zm-207,1h1v2h-1zm-75,2h1v3h-1zm3,4h1v5h-1zm74,1h1v1l-3,3h-1v-1zm-13,1h3v1h-3zm-30,1h10v1h-10zm-28,1h3v1h-3zm39,2h6v1h-6zm-36,1h7v1h-7z"/><path d="M7,156h1v3h-1zm102,2h1v19h-1zm-105,1h1v3h-1zm278,0h1v3h-1zm3,8h1v3h-1zm-277,2h1v2h-1zm1,8h1v2h-1zm103,1h1v22l-2,2h-3v-1c2,0,1-1,1-2h1l2,1zm121,1h2v1h-2zm48,1h1v3h-1zm-56,2h3v1h-3zm5,0h3v1h-3zm-173,1h2v1h-2zm227,0h1v5h-1zm-274,1h1v2h-1zm-3,2h1v3h-1z"/><path d="M59,186h2v1h-2zm9,0h2v1h-2zm-57,3h1v3h-1zm39,0h1v1l-1,1h-1v-1zm36,0h1l1,1v1h-1l-1-1zm122,0h1v1l-1,1h-1v-1zm-166,2h1v1l-3,3h-1v-1zm164,4h4v1h-4zm74,0h1v4h-1zm-191,1h1l2,2v1h-1l-2-2zm99,0h4v1h-4zm68,0h1l1,1v1h-1l-1-1zm-83,1h4v1h-4zm-16,1h2v1h-2zm-18,1h2v1h-2zm53,0h2v1h-2zm22,0h2v1h-2zm12,0h1l1,1v1h-1l-1-1zm57,0h1v2h-1zm-254,1h2v1h-2zm95,0h4v1h-4zm52,0h3v1h-3zm83,0h1l1,1v1h-1l-1-1zm-218,1h2v1h-2zm62,0h3v1h-3z"/><path d="M160,201h4v1h-4zm104,0h1l2,2v1h-1l-2-2zm-243,1h2v1h-2zm124,0h3v1h-3zm-17,1h3v1h-3zm-26,1h2v1h-2zm9,0h5v1h-5zm116,0h1l1,1v1h-1l-1-1zm-34,1h1v2h-1zm-160,1h1v2h-1zm35,1h1l4,4v1h-1l-4-4zm206,0h4v1h-4zm-82,2h1v3h-1zm3,4h1v6h-1zm-117,4h1v2h-1zm-3,2h1v5h-1zm117,0h1v3h-1zm41,2h1v2h-1zm-161,9h1v1l-1,1h-1v-1zm158,0h1v1l-3,3h-1v-1zm-34,1h1l1,1v1h-1l-1-1zm-133,4h2v1h-2z"/><path d="M200,235h1l1,1v1h-1l-1-1zm13,2h5v1h-5zm-162,1h2v1h-2zm6,1h4v1h-4z"/></g><g style="fill:rgb(43,104,188);fill-rule:evenodd;stroke:rgb(43,104,188);stroke-width:0.1;" id="l4"><path d="M188,46h7v1h-7zm65,0h5v1h-5zm-116,1h2v1h-2zm41,2h11v1h-11zm80,0h6v1h-6zm29,0h1v27h-1zm-149,1h8v1h-8zm-26,2h1v20h-1zm3,4h1v16h-1z"/><path d="M54,74h2v1h-2zm-3,1h2v1h-2zm-12,9h1v1l-1,1h-1v-1zm245,0h1v13h-1zm-248,2h1v1l-1,1h-1v-1zm-17,13h1v1l-1,1h-1v-1zm95,11h1v5h-1zm-3,1h1v2h-1zm-95,1h20v1h-20zm23,0h25v1h-25zm-18,3h7v1h-7zm26,0h4v1h-4z"/><path d="M6,129h1v2h-1zm107,2h1v4h-1zm-34,3h1v8h-1zm31,0h1v3h-1zm-102,2h1v3h-1zm275,1h1v8h-1zm3,1h1v3h-1zm-207,6h1v2h-1zm-72,1h1v3h-1zm-3,2h1v4h-1zm67,3h3v1h-3zm-23,1h5v1h-5zm-35,1h2v1h-2zm32,2h4v1h-4zm-41,1h1v4h-1zm5,0h4v1h-4zm-2,4h1v3h-1zm275,3h1v2h-1zm3,1h1v4h-1zm-277,8h1v2h-1zm104,0h1v7h-1z"/><path d="M6,179h1v3h-1zm217,0h2v1h-2zm-5,1h2v1h-2zm66,0h1v3h-1zm-61,2h2v1h-2zm25,2h1l1,1v1h-1l-1-1zm-36,2h1v1l-1,1h-1v-1zm39,0h1l3,3v1h-1l-3-3zm-164,8h1l1,1v1h-1l-1-1zm112,0h1v1l-1,1h-1v-1zm-187,1h1v3h-1zm26,1h1v1l-1,1h-1v-1zm154,0h4v1h-4zm24,0h3v1h-3zm-39,1h2v1h-2zm106,0h1v2h-1zm-249,2h2v1h-2zm107,0h3v1h-3zm139,0h1v2h-1zm-152,1h3v1h-3zm46,0h2v1h-2zm-135,1h2v1l-2,1h-1v-1zm72,0h2v1h-2zm46,0h3v1h-3zm-140,2h2v1h-2zm17,0h1v2h-1zm34,0h1l1,1v1h-1l-1-1z"/><path d="M104,204h2v1h-2zm5,0h2v1h-2zm120,2h1l1,1v1h-1l-1-1zm53,2h1v1l-1,1h-1v-1zm-90,4h1v7h-1zm-156,5h1v2h-1zm1,11h1l1,1v1h-1l-1-1zm4,0h1l1,1v1h-1l-1-1zm0,4h1l2,2v1h-1l-2-2zm157,1h1l1,1v1h-1l-1-1zm-127,2h1v1l-1,1h-1v-1zm139,5h2v1h-2z"/></g><g style="fill:rgb(150,181,222);fill-rule:evenodd;stroke:rgb(150,181,222);stroke-width:0.1;" id="l5"><path d="M172,46h6v1h-6zm95,0h4v1h-4zm-140,1h5v1h-5zm26,3h5v1h-5zm126,0h4v1h-4zm-209,21h3v1h-3zm12,0h3v1h-3zm-20,1h2v1h-2zm5,3h3v1h-3zm18,0h3v1h-3zm-25,1h2v1h-2zm55,0h1v3h-1zm-88,13h1v1l-2,2h-1v-1zm260,14h1v8h-1zm-176,3h1v3h-1zm-38,6h8v1h-8zm41,7h1v4h-1zm169,2h1v5h-1zm-272,2h1v2h-1zm99,3h1v4h-1z"/><path d="M82,127h1v5h-1zm-74,12h1v2h-1zm-4,2h1v3h-1zm109,1h1v5h-1zm173,3h1v5h-1zm-223,5h5v1h-5zm-35,1h7v1h-7zm81,0h1v5h-1zm-35,2h2v1h-2zm-17,1h4v1h-4zm-35,1h5v1h-5zm260,0h1v4h-1zm-278,7h1v3h-1zm4,5h1v2h-1zm277,3h1v4h-1zm-280,3h1v2h-1zm276,4h1v3h-1zm-220,9h2v1h-2zm5,0h2v1h-2zm182,2h1l1,1v1h-1l-1-1zm36,0h1v4h-1zm-240,1h1v1l-1,1h-1v-1z"/><path d="M202,190h1v1l-2,2h-1v-1zm4,1h1v1l-2,2h-1l2,1v1h-3v-2zm-198,1h1v2h-1zm38,0h1v1l-1,1h-1v-1zm38,0h1l1,1v1h-1l-1-1zm196,0h1v3h-1zm-22,1h1l1,1v1h-1l-1-1zm-48,2h3v1h-3zm-116,1h1l1,1v1h-1l-1-1zm90,0h4v1h-4zm-137,1h3v1h-3zm123,0h3v1h-3zm91,0h1l1,1v1h-1l-1-1zm-107,1h3v1h-3zm-62,1h1l2,2v1h-1l-2-2zm44,0h3v1h-3zm58,0h2v2h-1l-1-1zm-132,1h2v1h-2zm37,0h2v1h-2zm21,0h4v1h-4zm59,0h4v1h-4zm39,0h3v1h-3zm-166,1h2v1h-2z"/><path d="M164,201h4v1h-4zm65,0h1l3,3v1h-1l-3-3zm54,0h1v2h-1zm-135,1h3v1h-3zm-138,1h1v2h-1zm5,0h2v1h-2zm16,0h2v1h-2zm100,0h3v1h-3zm-104,1h2v1h-2zm73,0h2v1h-2zm16,0h4v1h-4zm81,0h1v2h-1zm-174,1h2v1h-2zm48,0h1l3,3v1h-1l-3-3zm208,0h1v2h-1zm-267,2h3v1h-3zm184,0h1v3h-1zm-160,1h1v2h-1zm197,7h1v3h-1zm-200,4h1v2h-1zm198,15h1v1l-1,1h-1v-1zm-178,1h2v1h-2zm12,3h2v1h-2zm-10,1h2v1h-2zm164,1h2v1h-2z"/></g><g style="fill:rgb(23,89,180);fill-rule:evenodd;stroke:rgb(23,89,180);stroke-width:0.1;" id="l6"><path d="M195,46h3v1h-3zm55,0h3v1h-3zm-111,1h2v1h-2zm35,2h4v1h-4zm90,0h3v1h-3zm-134,1h8v1h-8zm-18,22h1v5h-1zm-89,22h1v1l-1,1h-1v-1zm261,3h1v5h-1zm-170,11h1v2h-1zm-78,4h3v1h-3zm-25,1h1v2h-1zm8,2h2v1h-2zm32,0h3v1h-3zm28,16h1v3h-1zm31,6h1v2h-1zm173,8h1v3h-1zm-205,2h1v2h-1zm-74,4h1v4h-1zm49,0h3v1h-3zm-10,3h2v1h-2zm242,4h1v5h-1zm-173,10h1v3h-1zm-106,9h1v2h-1z"/><path d="M237,183h2v1h-2zm44,0h1v2h-1zm-227,1h2v1h-2zm-3,1h2v1h-2zm19,1h2v1h-2zm3,1h2v1h-2zm11,1h1l1,1v1h-1l-1-1zm166,1h1l2,2v1h-1l-2-2zm-202,1h1v1l-1,1h-1v-1zm40,1h1l2,2v1h-1l-2-2zm71,7h2v1h-2zm-15,1h4v1h-4zm-118,2h2v1h-2zm129,0h2v1h-2zm67,0h2l1,1v1h-1l-2-1zm-116,3h3v1h-3zm-73,4h1v2h-1zm236,1h2v1h-2zm-34,1h1v2h-1zm-162,3h1l1,1v2h-1l-1-2zm163,0h1v2h-1zm-198,10h1l1,2v1h-1l-1-1zm158,0h1v2h-1zm37,0h1v2h-1zm-159,3h1v2h-1zm-35,4h1l1,1v1h-1l-1-1zm161,1h1l1,1v1h-1l-1-1zm-152,2h1l2,1v1h-2l-1-1z"/><path d="M204,234h1l1,1v1h-1l-1-1zm24,2h1v1l-1,1h-1v-1zm-18,1h3v1h-3zm8,0h2v1h-2zm-11,2h2v1h-2z"/></g><g style="fill:rgb(180,202,230);fill-rule:evenodd;stroke:rgb(180,202,230);stroke-width:0.1;" id="l7"><path d="M168,46h4v1h-4zm103,0h3v1h-3zm-146,1h2v1h-2zm162,0h1v1h-1zm-129,3h3v1h-3zm118,0h3v1h-3zm-185,22h2v1h-2zm5,3h1v1l-1,1h-1v-1zm191,36h1v9h-1zm-4,7h1v3h-1zm-201,3h1v6h-1zm28,1h1v4h-1zm3,25h1v5h-1zm-4,1h1v3h-1zm-85,3h4v1h-4zm37,3h3v1h-3zm-34,1h4v1h-4zm-23,10h1v2h-1zm59,21h3v1h-3zm217,4h1v2h-1zm-189,3h1l2,2v1h-1l-2-2zm-47,1h1v1l-1,1h-1v-1zm1,3h2v1h-2z"/><path d="M50,197h2v1h-2zm118,0h2v1h-2zm15,3h2v1h-2zm-140,1h2v1h-2zm240,2h1v3h-1zm-209,30h1v1l-2,2h-1v-1zm-13,6h2v1h-2z"/></g><g style="fill:rgb(124,164,212);fill-rule:evenodd;stroke:rgb(124,164,212);stroke-width:0.1;" id="l8"><path d="M215,49h15v1h-15zm-135,22h2v1h-2zm-57,28h1v1l-1,1h-1v-1zm264,0h1v4h-1zm-4,27h1v2h-1zm-201,6h1v2h-1zm31,8h1v2h-1zm-78,11h3v1h-3zm-27,1h2v1h-2zm47,2h2v1h-2zm-35,1h2v1h-2zm89,1h1v2h-1zm119,26h2v1h-2zm-122,19h2v1h-2z"/></g><g style="fill:rgb(57,116,191);fill-rule:evenodd;stroke:rgb(57,116,191);stroke-width:0.1;" id="l9"><path d="M58,73h2v1h-2zm-51,52h1v2h-1zm102,52h1v22h-1zm144,15h1l1,1v1h-1l-1-1zm-199,9h2v1h-2zm41,0h1l1,1v1h-1l-1-1z"/></g><g style="fill:rgb(36,100,180);fill-rule:evenodd;stroke:rgb(36,100,180);stroke-width:0.1;" id="l10"><path d="M233,182h2v1h-2zm-137,16h1l1,1v1h-1l-1-1z"/></g><g style="fill:rgb(132,164,212);fill-rule:evenodd;stroke:rgb(132,164,212);stroke-width:0.1;" id="l11"><path d="M204,188h1v1l-1,1h-1v-1zm-162,8h1v1l-1,1h-1v-1z"/></g><g style="fill:rgb(28,100,180);fill-rule:evenodd;stroke:rgb(28,100,180);stroke-width:0.1;" id="l12"><path d="M195,229h1l1,1v1h-1l-1-1z"/></g></svg>